<svg width="49" height="49" viewBox="0 0 49 49" fill="none" xmlns="http://www.w3.org/2000/svg">
<rect x="0.961914" y="0.822266" width="48" height="48" rx="12" fill="#F7B24C"/>
<path d="M24.9615 14.9227L15.0624 24.8219L24.9615 34.7211L34.8607 24.8219L24.9615 14.9227ZM25.7864 12.4471L37.3364 23.9971C37.5551 24.2158 37.678 24.5125 37.678 24.8219C37.678 25.1312 37.5551 25.4279 37.3364 25.6467L25.7864 37.1967C25.5676 37.4154 25.2709 37.5383 24.9615 37.5383C24.6522 37.5383 24.3555 37.4154 24.1367 37.1967L12.5867 25.6467C12.368 25.4279 12.2451 25.1312 12.2451 24.8219C12.2451 24.5125 12.368 24.2158 12.5867 23.9971L24.1367 12.4471C24.3555 12.2283 24.6522 12.1055 24.9615 12.1055C25.2709 12.1055 25.5676 12.2283 25.7864 12.4471ZM26.1282 22.4886V19.5719L30.2115 23.6552L26.1282 27.7386V24.8219H22.6282V28.3219H20.2949V23.6552C20.2949 23.3458 20.4178 23.0491 20.6366 22.8303C20.8554 22.6115 21.1521 22.4886 21.4615 22.4886H26.1282Z" fill="white"/>
</svg>
