<svg width="49" height="49" viewBox="0 0 49 49" fill="none" xmlns="http://www.w3.org/2000/svg">
<rect x="0.961914" y="0.822266" width="48" height="48" rx="12" fill="#B366F6"/>
<path d="M36.0972 23.7078C36.4519 24.2048 36.6292 24.4544 36.6292 24.8219C36.6292 25.1906 36.4519 25.4391 36.0972 25.9361C34.5036 28.1714 30.4331 32.9886 24.9626 32.9886C19.4909 32.9886 15.4216 28.1703 13.8279 25.9361C13.4732 25.4391 13.2959 25.1894 13.2959 24.8219C13.2959 24.4533 13.4732 24.2048 13.8279 23.7078C15.4216 21.4724 19.4921 16.6553 24.9626 16.6553C30.4342 16.6553 34.5036 21.4736 36.0972 23.7078Z" stroke="white" stroke-width="1.5" stroke-linecap="round" stroke-linejoin="round"/>
<path d="M28.4619 24.8223C28.4619 23.894 28.0932 23.0038 27.4368 22.3474C26.7804 21.691 25.8902 21.3223 24.9619 21.3223C24.0337 21.3223 23.1434 21.691 22.487 22.3474C21.8307 23.0038 21.4619 23.894 21.4619 24.8223C21.4619 25.7505 21.8307 26.6408 22.487 27.2971C23.1434 27.9535 24.0337 28.3223 24.9619 28.3223C25.8902 28.3223 26.7804 27.9535 27.4368 27.2971C28.0932 26.6408 28.4619 25.7505 28.4619 24.8223Z" stroke="white" stroke-width="1.5" stroke-linecap="round" stroke-linejoin="round"/>
</svg>
