<svg width="48" height="49" viewBox="0 0 48 49" fill="none" xmlns="http://www.w3.org/2000/svg">
<rect y="0.582031" width="48" height="48" rx="12" fill="#01B4C0"/>
<path d="M19.8081 27.4619L18.7496 26.4034L15.4681 27.4513H15.3623C15.3107 27.4542 15.2592 27.4463 15.2109 27.428C15.1625 27.4098 15.1186 27.3817 15.0818 27.3455L14.3144 26.5886C14.2524 26.5297 14.2127 26.4511 14.2021 26.3662C14.1915 26.2813 14.2106 26.1953 14.2561 26.1229L15.1506 24.5827C15.7046 23.6346 16.4775 22.8329 17.4047 22.2445C18.3319 21.6561 19.3865 21.2982 20.4803 21.2007L21.7981 21.0843M21.7981 21.0843C22.5638 20.174 23.2695 19.3942 23.9152 18.745C25.1403 17.4472 26.6027 16.3962 28.2234 15.6488C29.8751 15.0309 31.6316 14.7415 33.3943 14.7967C33.5008 14.7982 33.6028 14.8397 33.6801 14.9131C33.7167 14.9468 33.746 14.9877 33.766 15.0332C33.7861 15.0788 33.7964 15.128 33.7965 15.1777C33.8322 16.9456 33.5174 18.7031 32.8703 20.3486C32.142 21.974 31.1028 23.4411 29.8111 24.6674C29.1602 25.3237 28.3768 26.0276 27.4718 26.7845L27.3554 28.097C27.2604 29.1903 26.9053 30.2449 26.3197 31.173C25.7342 32.1011 24.9351 32.8756 23.9893 33.432L22.4597 34.3264C22.3992 34.3579 22.332 34.3742 22.2639 34.3741C22.1626 34.372 22.0652 34.3345 21.9887 34.2682L21.2212 33.4955C21.1717 33.4481 21.1365 33.3878 21.1196 33.3213C21.1028 33.2548 21.105 33.185 21.126 33.1197L22.1474 29.8013M21.7981 21.0843L18.776 26.4299M22.1474 29.8013L21.1207 28.7745M22.1474 29.8013L27.493 26.7845M31.092 19.6606C31.0934 19.086 30.8668 18.5343 30.462 18.1265C30.0572 17.7187 29.5072 17.4881 28.9326 17.4853C28.6382 17.4708 28.344 17.5162 28.0678 17.6188C27.7915 17.7215 27.539 17.8792 27.3256 18.0823C27.1121 18.2855 26.9422 18.5299 26.826 18.8008C26.7099 19.0716 26.65 19.3633 26.65 19.6579C26.65 19.9526 26.7099 20.2443 26.826 20.5151C26.9422 20.786 27.1121 21.0304 27.3256 21.2336C27.539 21.4367 27.7915 21.5944 28.0678 21.697C28.344 21.7997 28.6382 21.8451 28.9326 21.8306C29.503 21.8308 30.0506 21.6065 30.4568 21.206C30.6611 21.0046 30.8222 20.7637 30.9305 20.498C31.0387 20.2323 31.0919 19.9474 31.0867 19.6606H31.092Z" stroke="white" stroke-width="1.4" stroke-linecap="round" stroke-linejoin="round"/>
<path d="M18.8066 29.7623C20.2053 29.5036 22.6879 27.1748 22.9781 25.5908C21.3837 25.895 19.0549 28.3637 18.8066 29.7623Z" stroke="white" stroke-width="1.4" stroke-linecap="round" stroke-linejoin="round"/>
</svg>
