<svg width="48" height="49" viewBox="0 0 48 49" fill="none" xmlns="http://www.w3.org/2000/svg">
<rect y="0.582031" width="48" height="48" rx="12" fill="#0057D9"/>
<path d="M27.7168 28.8263L29.84 30.9494L34.0865 26.7031" stroke="white" stroke-width="1.8" stroke-linecap="round" stroke-linejoin="round"/>
<path d="M33.025 22.4572V20.3341C33.0246 19.9617 32.9263 19.5961 32.74 19.2737C32.5537 18.9514 32.2858 18.6837 31.9634 18.4975L24.5321 14.2512C24.2093 14.0649 23.8432 13.9668 23.4705 13.9668C23.0978 13.9668 22.7317 14.0649 22.4089 14.2512L14.9776 18.4975C14.6552 18.6837 14.3873 18.9514 14.201 19.2737C14.0147 19.5961 13.9164 19.9617 13.916 20.3341V28.8267C13.9164 29.199 14.0147 29.5646 14.201 29.887C14.3873 30.2093 14.6552 30.477 14.9776 30.6632L22.4089 34.9095C22.7317 35.0958 23.0978 35.1939 23.4705 35.1939C23.8432 35.1939 24.2093 35.0958 24.5321 34.9095L26.6553 33.6993M18.6933 16.3744L28.2478 21.8415" stroke="white" stroke-width="1.8" stroke-linecap="round" stroke-linejoin="round"/>
<path d="M14.2227 19.2734L23.4693 24.5813M23.4693 24.5813L32.7159 19.2734M23.4693 24.5813V35.197" stroke="white" stroke-width="1.8" stroke-linecap="round" stroke-linejoin="round"/>
</svg>
