<svg width="48" height="49" viewBox="0 0 48 49" fill="none" xmlns="http://www.w3.org/2000/svg">
<rect y="0.582031" width="48" height="48" rx="12" fill="#F7B24C"/>
<path d="M24.001 29.7658C24.2962 29.7658 24.5438 29.6658 24.7439 29.4657C24.9439 29.2657 25.0436 29.0184 25.0429 28.7239V24.5564C25.0429 24.2612 24.9429 24.0139 24.7428 23.8146C24.5428 23.6153 24.2955 23.5152 24.001 23.5145C23.7065 23.5138 23.4592 23.6139 23.2592 23.8146C23.0592 24.0153 22.9591 24.2626 22.9591 24.5564V28.7239C22.9591 29.0191 23.0592 29.2667 23.2592 29.4668C23.4592 29.6668 23.7065 29.7665 24.001 29.7658ZM24.001 21.4308C24.2962 21.4308 24.5438 21.3308 24.7439 21.1307C24.9439 20.9307 25.0436 20.6834 25.0429 20.3889C25.0422 20.0944 24.9422 19.8471 24.7428 19.6471C24.5435 19.4471 24.2962 19.347 24.001 19.347C23.7058 19.347 23.4585 19.4471 23.2592 19.6471C23.0599 19.8471 22.9598 20.0944 22.9591 20.3889C22.9584 20.6834 23.0585 20.931 23.2592 21.1318C23.4599 21.3325 23.7072 21.4322 24.001 21.4308ZM24.001 34.871C23.8795 34.871 23.7666 34.8623 23.6624 34.8449C23.5582 34.8276 23.454 34.8015 23.3498 34.7668C21.0056 33.9854 19.1389 32.5396 17.7498 30.4295C16.3606 28.3193 15.666 26.0491 15.666 23.6187V18.6959C15.666 18.2618 15.7921 17.871 16.0442 17.5238C16.2963 17.1765 16.6218 16.9247 17.0205 16.7684L23.2717 14.4242C23.5148 14.3374 23.7579 14.2939 24.001 14.2939C24.2441 14.2939 24.4872 14.3374 24.7303 14.4242L30.9816 16.7684C31.381 16.9247 31.7067 17.1765 31.9589 17.5238C32.211 17.871 32.3367 18.2618 32.336 18.6959V23.6187C32.336 26.0498 31.6414 28.3204 30.2523 30.4305C28.8631 32.5406 26.9964 33.9861 24.6522 34.7668C24.548 34.8015 24.4438 34.8276 24.3396 34.8449C24.2354 34.8623 24.1226 34.871 24.001 34.871ZM24.001 32.7872C25.8069 32.2142 27.3003 31.0681 28.4811 29.349C29.6619 27.6299 30.2523 25.7198 30.2523 23.6187V18.6959L24.001 16.3516L17.7498 18.6959V23.6187C17.7498 25.7198 18.3402 27.6299 19.521 29.349C20.7017 31.0681 22.1951 32.2142 24.001 32.7872Z" fill="white"/>
</svg>
