<svg width="48" height="49" viewBox="0 0 48 49" fill="none" xmlns="http://www.w3.org/2000/svg">
<rect y="0.582031" width="48" height="48" rx="12" fill="#B366F6"/>
<path d="M17.4639 16.0844C17.368 15.9865 17.2536 15.9084 17.1275 15.8547C17.0014 15.801 16.8659 15.7726 16.7288 15.7713C16.5917 15.77 16.4556 15.7956 16.3285 15.8469C16.2013 15.8982 16.0855 15.974 15.9876 16.07C14.881 17.1708 14.0031 18.4796 13.4046 19.9212C12.8061 21.3627 12.4987 22.9084 12.5003 24.4693C12.4986 26.0901 12.8301 27.6939 13.474 29.1813C14.1179 30.6687 15.0606 32.0079 16.2435 33.1159C16.4426 33.2999 16.7056 33.3991 16.9767 33.3924C17.2478 33.3857 17.5056 33.2736 17.6954 33.0799C18.1496 32.6257 18.0936 31.9026 17.6566 31.4843C16.7071 30.5794 15.9515 29.491 15.4358 28.285C14.9201 27.0791 14.6549 25.7809 14.6565 24.4693C14.6565 21.8157 15.7217 19.4093 17.4496 17.6584C17.8664 17.2344 17.9096 16.53 17.4639 16.0844ZM19.9954 18.6187C19.8061 18.4239 19.5472 18.3121 19.2756 18.3078C19.004 18.3035 18.7418 18.407 18.5464 18.5957C17.7684 19.3631 17.1509 20.2776 16.7299 21.286C16.3089 22.2944 16.0927 23.3765 16.094 24.4693C16.094 26.9016 17.1434 29.088 18.8152 30.6002C19.0127 30.7744 19.2696 30.8658 19.5326 30.8557C19.7957 30.8455 20.0448 30.7345 20.2282 30.5456C20.6997 30.0741 20.6121 29.3324 20.1693 28.9155C19.5626 28.3448 19.0793 27.6559 18.7492 26.8912C18.4192 26.1265 18.2494 25.3022 18.2502 24.4693C18.2502 22.8162 18.9072 21.3154 19.9752 20.2143C20.3864 19.7917 20.4539 19.0758 19.9954 18.6187ZM28.0051 18.6172C28.1944 18.4224 28.4533 18.3106 28.7249 18.3063C28.9965 18.302 29.2587 18.4056 29.4541 18.5942C30.2322 19.3618 30.8498 20.2766 31.2709 21.2853C31.6919 22.2939 31.908 23.3763 31.9065 24.4693C31.9065 26.9016 30.8571 29.088 29.1853 30.6002C28.9878 30.7744 28.7309 30.8658 28.4678 30.8557C28.2048 30.8455 27.9557 30.7345 27.7722 30.5456C27.3007 30.0741 27.3884 29.3324 27.8312 28.9155C28.4379 28.3448 28.9212 27.6559 29.2512 26.8912C29.5813 26.1265 29.7511 25.3022 29.7502 24.4693C29.7502 22.8162 29.0933 21.3154 28.0252 20.2143C27.6141 19.7917 27.5466 19.0744 28.0051 18.6172ZM30.5366 16.0844C30.6325 15.9865 30.7468 15.9084 30.873 15.8547C30.9991 15.801 31.1346 15.7726 31.2717 15.7713C31.4088 15.77 31.5449 15.7956 31.672 15.8469C31.7992 15.8982 31.915 15.974 32.0129 16.07C33.1195 17.1708 33.9974 18.4796 34.5959 19.9212C35.1944 21.3627 35.5018 22.9084 35.5002 24.4693C35.5019 26.0901 35.1704 27.6939 34.5265 29.1813C33.8826 30.6687 32.9399 32.0079 31.757 33.1159C31.5579 33.2999 31.2948 33.3991 31.0238 33.3924C30.7527 33.3857 30.4949 33.2736 30.3051 33.0799C29.8509 32.6257 29.9069 31.9026 30.3454 31.4843C31.2946 30.5793 32.0499 29.4908 32.5654 28.2849C33.0808 27.0789 33.3458 25.7808 33.344 24.4693C33.344 21.8157 32.2788 19.4093 30.5509 17.6584C30.1341 17.2344 30.0909 16.53 30.5366 16.0844ZM24.0002 22.3131C23.4284 22.3131 22.8799 22.5402 22.4755 22.9446C22.0712 23.349 21.844 23.8974 21.844 24.4693C21.844 25.0412 22.0712 25.5896 22.4755 25.994C22.8799 26.3984 23.4284 26.6256 24.0002 26.6256C24.5721 26.6256 25.1206 26.3984 25.5249 25.994C25.9293 25.5896 26.1565 25.0412 26.1565 24.4693C26.1565 23.8974 25.9293 23.349 25.5249 22.9446C25.1206 22.5402 24.5721 22.3131 24.0002 22.3131Z" fill="white"/>
</svg>
